<?xml version="1.0" encoding="utf-8"?>
<!-- Generator: Adobe Illustrator 25.2.1, SVG Export Plug-In . SVG Version: 6.00 Build 0)  -->
<svg version="1.1" id="Layer_1" xmlns="http://www.w3.org/2000/svg" xmlns:xlink="http://www.w3.org/1999/xlink" x="0px" y="0px"
	 viewBox="0 0 588.7 116.89" style="enable-background:new 0 0 588.7 116.89;" xml:space="preserve">
<g>
	<path d="M532.61,29.98c0.75-2.01,1.59-3.9,2.15-5.86c1.42-4.96,2.65-9.96,4.08-14.92c0.59-2.06,1.3-4.26,4.61-3.58
		c0,1.67,0.34,3.38-0.06,4.88c-1.24,4.55-2.58,9.1-4.26,13.5c-1.72,4.51-1.33,7.07,2.43,10.14c4.13,3.37,8.1,7.01,12.55,9.89
		c2.89,1.87,6.45,3.37,9.83,3.68c10.55,0.97,13.7,4.03,14.74,14.75c0.98,10.15-2.9,18.78-7.87,27.05
		c-2.68,4.45-8.59,4.67-12.83,0.87c-5.23-4.68-7.42-10.64-6.55-17.52c0.81-6.4,1.19-12.94,4.69-18.73c0.46-0.76,0.35-2.52-0.22-3.15
		c-5.5-5.99-11.95-10.71-19.63-14.59c-0.48,1.42-1.06,2.38-1.1,3.37c-0.39,9.23-2.96,18.02-5.25,26.87
		c-2.27,8.77,2.3,15.46,6.74,23.01c4.14-3.25,7.78-6.11,11.43-8.97c0.2,0.15,0.41,0.3,0.61,0.46c-0.11,0.68,0,1.53-0.37,2
		c-2.44,3.13-4.74,6.43-7.58,9.16c-2.25,2.16-7.39,0.19-9.55-3.27c-5.79-9.24-7.11-19.19-4.68-29.75
		c1.74-7.53,3.29-15.11,5.09-22.63c0.7-2.92-0.54-4.37-3.01-5.37c-7.63-3.11-15.64-4.14-23.74-3.66c-4.41,0.26-8.83,1.48-13.08,2.8
		c-3.43,1.06-4.36,3.51-2.62,6.72c1.23,2.27,3.03,4.43,5.07,6.01c7.13,5.52,15.48,8.7,23.86,11.75c1.32,0.48,2.63,0.97,4.42,1.63
		c-5.06,4-4.07,9.35-4.15,14.41c-0.07,4.09-0.65,7.94-3.69,11.06c-0.67,0.69-0.91,1.8-1.66,3.38c4.39-0.35,6.13-3.55,9.38-4.92
		c-1.76,3-3.28,6.18-5.39,8.91c-0.86,1.11-3.34,2.06-4.45,1.59c-1.1-0.47-1.72-2.76-1.97-4.35c-0.26-1.63,0.17-3.38,0.3-5.07
		c-0.33-0.19-0.67-0.39-1-0.58c-1.17,1.3-2.32,2.62-3.52,3.89c-2.2,2.35-4.15,5.05-6.71,6.88c-2.14,1.53-4.94,2.48-7.57,2.91
		c-6.57,1.08-12.28-4.25-12.19-11.84c0.08-6.71,1.12-13.41,1.69-20.12c0.2-2.41,0.25-4.84,0.36-7.26c-0.45-0.12-0.91-0.25-1.36-0.37
		c-0.66,1.51-1.38,3.01-1.97,4.55c-3.44,8.91-6.81,17.83-10.29,26.72c-0.51,1.29-1.35,2.5-2.25,3.58c-1.9,2.28-4.32,1.87-5-0.99
		c-0.54-2.23-0.47-4.6-0.67-6.91c-0.15-1.76-0.31-3.51-0.46-5.27c-0.33-0.11-0.65-0.23-0.98-0.34c-0.78,0.92-1.87,1.71-2.28,2.77
		c-3.37,8.57-10.05,11.19-18.6,10.64c-1.91-0.12-3.84-0.38-5.73-0.19c-1.3,0.13-2.53,0.92-3.71,1.71c-3.85,0.85-7.27-1.21-7.29-5.13
		c-0.03-6.54,0.59-13.09,1.25-19.61c0.35-3.46,1.36-6.85,2.01-10.28c0.18-0.95,0.17-1.94,0.31-3.81c-1.26,1.11-2.14,1.57-2.54,2.29
		c-1.5,2.68-2.97,5.39-4.21,8.2c-4.01,9.05-7.89,18.16-11.87,27.22c-0.44,0.99-1.21,1.83-2.36,3.54c-0.74-2.22-1.42-3.53-1.59-4.91
		c-0.91-7.18-1.65-14.38-2.53-21.57c-0.19-1.59-0.71-3.14-1.07-4.7c-0.27-0.06-0.55-0.13-0.82-0.19c-0.76,1.09-1.89,2.07-2.22,3.28
		c-1.94,7.11-3.72,14.27-5.48,21.43c-0.63,2.54-1.04,5.13-1.56,7.7c-0.32,0.11-0.64,0.21-0.96,0.32c-0.63-0.75-1.67-1.44-1.82-2.27
		c-0.53-3.01-0.77-6.08-1.11-9.13c-0.49-4.46-0.83-8.94-1.51-13.37c-0.24-1.56-1.32-2.98-2.02-4.47c-0.36,0.01-0.72,0.01-1.08,0.02
		c-0.87,1.34-1.92,2.59-2.57,4.02c-4.02,8.87-6.25,18.22-7.39,27.86c-0.16,1.39-0.47,2.82-1.04,4.09c-0.4,0.89-1.37,1.52-2.08,2.27
		c-0.31-0.1-0.62-0.2-0.92-0.29c-0.28-1.48-0.71-2.96-0.81-4.46c-0.55-7.89-0.91-15.79-1.58-23.66c-0.19-2.28-1.2-4.5-2.09-7.64
		c-1.74,1.73-2.96,2.6-3.73,3.77c-4.41,6.75-7.41,14.11-9.28,21.96c-0.58,2.42-1.3,4.82-2.19,7.13c-0.26,0.67-1.31,1.03-1.99,1.54
		c-0.39-0.73-1.15-1.49-1.11-2.19c0.3-4.48,0.97-8.94,1.15-13.42c0.16-3.97,0.02-7.97-0.34-11.93c-0.11-1.18-1.37-2.26-2.1-3.38
		c-1.02,0.87-2.63,1.56-2.95,2.63c-1.52,5.07-2.81,10.21-3.93,15.38c-0.7,3.24-0.86,6.59-1.47,9.86c-0.18,0.95-1.04,1.78-1.58,2.66
		c-0.33-0.06-0.66-0.13-0.99-0.19c-0.29-1.11-0.83-2.22-0.84-3.33c-0.09-5.75,0.04-11.5-0.08-17.24c-0.04-1.9-0.6-3.8-0.92-5.7
		c-0.36-0.12-0.72-0.24-1.08-0.35c-0.87,1.05-2.14,1.97-2.54,3.18c-2.28,6.76-4.35,13.59-6.48,20.4c-0.89,2.85-1.67,5.75-2.65,8.57
		c-0.38,1.09-1.16,2.03-1.76,3.04c-0.29-0.07-0.59-0.15-0.88-0.22c0-1.92-0.15-3.85,0.03-5.75c0.51-5.38,0.96-10.79,1.86-16.11
		c0.38-2.24,1.43-4.64,2.9-6.35c2.31-2.68,3.31-5.72,3.17-8.95c-0.18-3.99-0.58-8.13-1.87-11.86c-1.13-3.28-3.47-3.46-6.4-1.45
		c-9.9,6.79-14.02,16.77-15.41,28.2c-0.27,2.23-0.45,4.48-0.4,6.72c0.03,1.41,0.57,2.81,1.14,5.33c4.48-3.1,8.26-5.73,12.04-8.35
		c0.27,0.13,0.55,0.26,0.82,0.4c-0.4,1.47-0.52,3.11-1.25,4.39c-1.88,3.29-4.91,5.19-8.62,5.81c-5.14,0.85-8.18-1.46-8.51-7.22
		c-0.83-14.61,4.59-26.87,15.12-36.82c1.71-1.61,4.29-2.73,6.63-3.13c5.45-0.93,10.16,3.64,10.37,9.9c0.1,2.93,0.45,5.1,3.8,6.03
		c1.42,0.4,2.48,2.08,4.1,3.53c0.71-0.56,1.75-1.27,2.65-2.13c1.81-1.71,3.37-3.74,5.36-5.18c3.04-2.21,5.38-0.84,5.8,2.88
		c0.27,2.36,0.99,4.68,1.51,7.01c0.44,0.06,0.88,0.12,1.32,0.18c0.89-1.38,1.76-2.78,2.69-4.14c1.49-2.18,2.76-4.61,4.6-6.45
		c3.54-3.53,7.47-2.55,8.87,2.24c0.85,2.91,0.89,6.05,1.36,9.08c0.16,0.99,0.54,1.95,0.82,2.92c0.36,0.05,0.73,0.09,1.09,0.14
		c0.59-1.59,1.12-3.21,1.79-4.76c1.69-3.94,3.13-8.05,5.33-11.69c0.97-1.61,3.63-3.24,5.33-3.06c1.43,0.16,2.74,2.82,3.81,4.56
		c0.76,1.25,0.94,2.83,1.54,4.2c0.34,0.77,0.99,1.4,2.09,2.89c0.8-2.32,1.24-3.93,1.9-5.44c1.64-3.69,3.24-7.4,5.17-10.93
		c0.51-0.94,2.37-1.96,3.23-1.7c1.05,0.32,2.24,1.86,2.45,3.03c1,5.64,1.66,11.34,2.49,17.02c0.27,1.88,0.66,3.74,1.75,5.84
		c0.59-1.07,1.26-2.11,1.77-3.22c3.59-7.67,7.02-15.42,10.79-23c1.32-2.64,3.39-4.93,5.28-7.25c0.71-0.87,1.86-1.39,3.45-2.52
		c0.24,2.13,0.66,3.5,0.5,4.8c-0.85,7.18-2,14.33-2.73,21.53c-0.43,4.28-0.33,8.62-0.35,12.94c0,0.89,0.56,1.78,0.86,2.67
		c0.28,0.05,0.56,0.1,0.84,0.15c0.52-1,1.37-1.95,1.51-2.99c0.6-4.45,0.65-8.99,1.53-13.37c1.85-9.22,7.08-16.24,16.22-18.79
		c4.42-1.23,9.54,0.03,14.34,0.19c1.33,0.04,2.73,0.51,3.97,0.23c1.65-0.39,3.18-1.29,4.74-2.03c0.55-0.26,1.01-0.69,2.21-0.73
		c-0.33,1.8-0.53,3.63-1.01,5.39c-1.94,7.13-4.1,14.21-5.89,21.38c-0.62,2.48-0.43,5.17-0.61,7.77c0.38,0.14,0.76,0.28,1.13,0.43
		c0.78-1.01,1.82-1.91,2.3-3.04c3.89-9.28,8-18.49,11.39-27.95c2.4-6.69,3.94-13.71,5.55-20.66c0.9-3.89,2.81-6.33,6.68-7.53
		c10.65-3.3,21.35-3.41,31.98-0.3C526.14,26.01,529.05,28.13,532.61,29.98z M458.1,56.24c-2.49,1.65-4.99,2.64-6.53,4.45
		c-5.4,6.31-10.48,12.89-15.64,19.4c-0.71,0.89-1.21,1.95-1.82,2.97c1.82,2.66,4.35,4.12,7.13,3.06c3.57-1.36,7.23-3.09,10.13-5.52
		c5.52-4.65,9.84-10.23,8.92-18.21c-0.06-0.53,0.19-1.09,0.3-1.6c0.94-0.15,1.74-0.28,2.53-0.41c1-2.13,1.12-4.28-0.97-5.31
		C461.2,54.61,459.45,55.8,458.1,56.24z M512.74,64.71c-4.64-1-8.89-0.62-12.2,2.79c-3.99,4.11-7.77,8.44-11.48,12.81
		c-1.33,1.56-2.4,3.42-3.24,5.3c-1.25,2.79-0.13,4.8,2.91,4.67c2.82-0.12,5.91-0.56,8.33-1.88
		C506.28,83.4,510.86,75.06,512.74,64.71z M485.38,63.36c1.71-2.16,2.83-3.82,4.2-5.24c1.48-1.54,3.11-2.99,4.86-4.2
		c0.59-0.41,2.18-0.29,2.56,0.18c0.44,0.55,0.39,2.03-0.07,2.64c-0.87,1.16-2.11,2.11-3.33,2.93c-5.96,4.01-8.67,9.9-9.59,16.74
		c-0.13,0.94,0.69,2.41,1.52,2.91c0.5,0.31,2.49-0.57,2.71-1.26c1.71-5.34,5.69-8.91,9.44-12.67c4.01-4.02,8.72-5.94,14.49-4.83
		c0.76,0.14,1.68-0.59,2.53-0.92c-0.4-1-0.54-2.57-1.24-2.88c-1.44-0.64-3.17-0.76-4.79-0.8c-4.26-0.09-7.84-1.51-10.91-4.53
		c-2.84-2.8-5.92-5.37-9.1-8.22C485.35,49.8,484.81,56.06,485.38,63.36z M571.13,76.54c-0.95-3.49-1.58-6.93-2.83-10.12
		c-0.98-2.5-3.08-2.85-5.36-1.54c-6.94,3.99-8.57,16.46-2.89,22.18c2.74,2.76,6.38,2.5,8.05-1
		C569.49,83.13,570.11,79.83,571.13,76.54z M451.48,55.16c-8.02-1.76-22.3,13.89-17.96,24.13
		C439.36,71.44,445.28,63.49,451.48,55.16z M566.87,50.09c-1.78,0.16-3.64,0.47-3.72,2.94c-0.07,2.4,3.34,4.93,6.64,4.83
		c1.73-0.05,3.72-0.18,3.83-2.6C573.75,52.64,570.32,50.04,566.87,50.09z M557.56,65.49c2.92-0.63,4.57-2.8,5.76-5.26
		c0.39-0.81,0.2-2.61-0.37-2.99c-0.91-0.6-2.57-0.86-3.53-0.42C556.89,57.99,555.96,62.72,557.56,65.49z M570.15,59.44
		c-1.34,4.94,1.28,7.71,2.95,11.43c1.36-3.23,2.81-5.88,0.75-8.64C573.05,61.17,571.67,60.55,570.15,59.44z M515.18,70.23
		c0,1.46,0,2.73,0,4.3C517.97,72.85,517.91,71.81,515.18,70.23z"/>
	<path d="M72.45,34.65c0.6,0.67,1.57,1.26,1.73,2.02c0.5,2.35,1.05,4.78,0.93,7.15c-0.48,9.04-1.22,18.06-1.87,27.09
		c-0.06,0.79-0.13,1.58-0.27,3.19c1.63-1.98,2.86-3.3,3.89-4.77c2.62-3.73,5.95-5.46,10.66-4.97c4.74,0.49,5.03,0.03,5.86-4.59
		c0.57-3.16,1.84-4.12,5.44-4.09c3.65,0.02,4.34,0.6,4.9,4.17c0.39,2.45,0.73,4.91,1.22,8.25c1.22-2.23,2.07-3.79,2.91-5.34
		c4.23-7.83,10.51-9.4,17.79-4.37c4.16,2.88,7.8,6.28,9.93,10.98c1.29,2.83,0.44,3.82-2.63,4.26c-1.8,0.26-3.91,0.83-5.17,2.01
		c-5.08,4.78-9.98,9.77-14.75,14.87c-2.06,2.2-1.71,3.79,0.67,5.68c2.92,2.32,6.31,2.58,9.37,0.76c4.49-2.67,8.84-5.65,12.9-8.93
		c1.33-1.07,1.92-3.42,2.26-5.29c1.24-6.83,2.78-13.55,6.26-19.63c1.88-3.28,4.12-6.37,8.14-7.24c5.5-1.19,10.81,1.95,13.09,7.55
		c0.53,1.31,0.94,2.68,1.58,3.93c1.77,3.45,3.86,3.67,5.8,0.34c3.43-5.91,8.77-9.39,14.56-12.5c4.5-2.42,8.83-2.44,12.87,0.64
		c3.88,2.96,7.81,5.96,11.16,9.48c2.82,2.95,1.94,6.67-1.79,8.66c-1.27-1.89-2.63-3.81-3.88-5.8c-2.66-4.24-3.26-4.53-7.37-1.62
		c-6.44,4.56-12.7,9.37-19.05,14.06c-1.4,1.03-2.84,2-4.27,3c-0.26-0.24-0.53-0.48-0.79-0.72c0.61-1.19,1.08-2.49,1.86-3.56
		c4.82-6.63,11.1-11.42,18.69-14.49c1.23-0.5,2.62-0.74,3.7-1.45c1.01-0.66,2.58-2.08,2.39-2.65c-0.41-1.2-1.67-2.67-2.83-2.94
		c-1.75-0.4-3.88-0.3-5.55,0.35c-6.67,2.61-12.76,6.4-17.29,11.93c-2.14,2.62-3.39,6.29-4.09,9.68c-0.68,3.27-0.44,6.82-0.07,10.19
		c0.65,5.83,6.27,9.23,11.53,6.6c4.94-2.47,9.44-5.85,14.03-8.99c2.05-1.41,3.79-3.25,5.73-4.83c2.49-2.03,3.91-1.75,5.58,1.04
		c0.38,0.64,0.76,1.31,0.99,2.01c2.03,6.32,4.02,12.65,6.01,18.92c-1.89,1.41-4.18,0.96-5.37-1.35c-1.1-2.11-1.77-4.46-2.47-6.74
		c-0.66-2.14-0.96-4.39-1.69-6.51c-0.78-2.28-2.37-2.74-4.26-1.25c-1.49,1.18-2.75,2.66-4.12,3.99c-4.8,4.65-9.94,8.65-17.02,8.99
		c-4.62,0.22-8.25-1.55-10.94-5.29c-0.88-1.21-1.77-2.41-3.27-4.45c-0.84,1.22-1.41,2.35-2.25,3.22c-1.79,1.85-3.58,3.75-5.61,5.31
		c-6.97,5.34-15.12,2.95-18.4-5.27c-0.6-1.51-1.22-3.02-2.07-5.14c-1.23,1.23-2.11,2.02-2.88,2.9c-3.27,3.76-6.94,7.03-11.76,8.57
		c-4.8,1.54-9.21,0.83-12.79-3.06c-1.07-1.16-2.17-2.28-3.03-3.18c-3.34,1.66-6.35,3.99-9.66,4.59c-3.61,0.65-6.57-1.81-8.68-5.64
		c-1.16,0.56-2.5,0.94-3.5,1.74c-3.65,2.9-7.19,5.94-10.79,8.91c-0.64,0.53-1.32,1.19-2.08,1.34c-1.28,0.25-2.62,0.13-3.94,0.17
		c-0.02-1.24-0.23-2.52,0-3.71c0.21-1.1,0.88-2.11,1.35-3.17c-0.31,0.02-0.63,0.04-0.94,0.06c-0.58-2.65-1.48-5.28-1.67-7.96
		c-0.53-7.75,0.35-15.34,1.72-23.05c1.61-9.04,1.59-18.37,2.26-27.58c0.15-2.05,0.22-4.1,0.32-6.16
		C71.91,34.91,72.18,34.78,72.45,34.65z M166.52,81.21c-0.37-2.37-0.6-4.77-1.14-7.1c-0.52-2.23-2.14-2.91-4.21-2.05
		c-1.21,0.5-2.33,1.27-3.41,2.03c-3.73,2.64-7.51,5.22-11.08,8.06c-1.43,1.13-2.75,2.71-3.45,4.37c-1.6,3.78,0.13,8.07,3.98,11.45
		c1.9,1.66,3.84,1.89,5.94,0.67c1.94-1.13,3.77-2.44,5.7-3.59C164.09,91.93,167.1,87.64,166.52,81.21z M86.73,67.3
		C74.1,69.98,69.4,88.51,71.68,98.72c3.37-3.61,6.44-6.9,9.51-10.18c0.39,0.32,0.78,0.64,1.17,0.96c-2.54,3.41-5.09,6.82-7.63,10.23
		c0.25,0.24,0.5,0.47,0.76,0.71c2.09-1.69,4.22-3.33,6.26-5.08c3.53-3.02,5.52-6.74,5.43-11.55c-0.06-3.49,0.41-6.99,0.39-10.48
		C87.55,71.37,87.04,69.41,86.73,67.3z M108.57,86.55c1.23-0.78,2.51-1.39,3.53-2.29c4.19-3.68,8.43-7.3,12.4-11.2
		c5.63-5.53,5.09-8.95-2.12-12.58c-1.55-0.78-4.32-0.75-5.78,0.14c-8.93,5.44-10.34,14.99-8.82,24.61
		C107.83,85.59,108.18,85.92,108.57,86.55z M142.84,81.22c1.27-0.45,1.62-0.5,1.87-0.67c0.47-0.33,0.97-0.68,1.31-1.13
		c3.48-4.64,8.16-7.68,13.21-10.36c4.61-2.45,4.67-4.03,0.7-7.48c-0.5-0.44-1.01-1.11-1.57-1.18c-1.53-0.17-3.6-0.72-4.56,0.02
		c-5.33,4.15-9.66,9.15-10.91,16.1C142.63,77.89,142.84,79.34,142.84,81.22z M102.35,74.91c-0.35-0.03-0.7-0.05-1.04-0.08
		c-2.7,4.36-5.49,8.67-8.06,13.1c-2.75,4.73-1.23,7.39,4.29,7.35c1.91-0.01,3.87-0.76,5.67-1.51c0.73-0.3,1.63-1.56,1.54-2.28
		C104.08,85.95,103.18,80.43,102.35,74.91z M92.35,82.15c6.05-3.01,11.1-19.27,7.16-22.62C95.44,61.47,90.3,77.46,92.35,82.15z"/>
	<path d="M32,69.51c2.35-2.3,4.7-4.6,7.06-6.89c0.35,0.17,0.7,0.33,1.05,0.5c-0.39,2.73-0.68,5.49-1.19,8.2
		c-1.23,6.62-2.7,13.19-3.79,19.83c-0.42,2.54-0.9,5.83,2.02,7.15c2.96,1.34,5.11-1.18,7.06-3.08c2.86-2.79,3.94-5.96,3.04-10.16
		c-1.72-8.04,0.01-15.91,2.58-23.54c1.22-3.62,2.86-7.09,4.34-10.61c1.07-2.54,3.05-3.74,5.76-3.39c2.77,0.36,4.06,2.44,4.17,4.9
		c0.15,3.3,0.08,6.67-0.44,9.93c-1.21,7.55-3.78,14.62-8.18,20.99c-1.11,1.61-1.92,3.51-2.52,5.39c-0.75,2.36,0.72,3.76,2.94,2.64
		c2.25-1.14,4.17-2.94,6.24-4.46c0.77-0.56,1.54-1.12,2.55-1.47c-1.01,3.95-2.73,7.48-5.83,10.06c-0.78,0.65-2.4,0.63-3.55,0.42
		c-3.91-0.71-7.2-0.09-9.87,3.17c-0.96,1.17-2.45,2.02-3.86,2.67c-5.56,2.59-9.57,0.32-10.23-5.73c-0.62-5.66,0.46-11.1,2.37-16.41
		c0.86-2.39,1.55-4.85,2.31-7.27c-0.23-0.27-0.45-0.53-0.68-0.8c-1.05,0.48-2.44,0.68-3.09,1.48c-1.99,2.44-3.84,5.03-5.49,7.72
		c-2.4,3.9-4.82,7.82-6.76,11.95c-1.35,2.87-2.08,6.07-2.78,9.19c-0.61,2.73-1.11,5.34-4.56,6.66c-0.29-1.27-0.78-2.29-0.7-3.26
		c1.09-13.85,2.19-27.71,3.51-41.54c0.11-1.19,1.76-2.24,2.7-3.35c1.01-1.19,2.27-2.24,3.01-3.57c2.48-4.52,4.56-9.27,7.21-13.68
		c1.6-2.66,3.76-5.09,6.07-7.17c2.28-2.06,4.27-1.2,5.22,1.78c1.27,4.01,0.73,7.97-0.78,11.74c-2.01,5.01-4.38,9.88-6.5,14.85
		c-0.62,1.47-0.91,3.08-1.35,4.63C31.38,69.13,31.69,69.32,32,69.51z M17.57,87.16c0.47,0.13,0.94,0.26,1.41,0.39
		c1.1-1.95,2.41-3.82,3.25-5.87c3.06-7.45,6.07-14.92,8.88-22.47c1.71-4.58,3.12-9.27,4.45-13.97c0.33-1.17-0.15-2.57-0.32-4.73
		c-1.18,1.31-1.75,1.79-2.13,2.38c-7.72,12.39-13.15,25.69-15.78,40.07C17.09,84.3,17.47,85.75,17.57,87.16z M50.09,82.46
		c0.37,0.12,0.75,0.24,1.12,0.36c0.92-1.29,2.16-2.45,2.72-3.88c2.78-7.11,5.48-14.26,7.96-21.48c0.38-1.11-0.5-2.66-0.8-4
		c-1.46,0.53-3.01,0.89-4.32,1.67c-0.66,0.39-1.02,1.51-1.26,2.37c-1.94,7.21-3.85,14.43-5.66,21.68
		C49.6,80.19,49.99,81.36,50.09,82.46z"/>
	<path d="M294.91,54.03c0.25-2.05,0.18-4.2,0.79-6.13c2.54-7.92,4.05-15.94,3.65-24.3c-0.28-5.78-1.73-6.76-6.84-4.14
		c-5.87,3.01-10.85,7.08-14.63,12.56c-7.53,10.93-13.08,22.63-13.84,36.13c-0.65,11.53,3.18,20.98,13.43,27.09
		c5.86,3.5,11.88,6.72,17.79,10.13c1.39,0.8,2.63,1.86,3.94,2.8c-0.11,0.23-0.21,0.46-0.32,0.69c-1.39-0.32-2.86-0.47-4.17-1
		c-5.55-2.25-11.18-4.34-16.54-6.97c-13.9-6.84-19.78-18.3-18.8-33.6c1.28-19.93,11.38-35.29,25.19-48.69
		c2.58-2.51,5.76-4.16,9.58-4.35c5.52-0.27,8.92,2.1,9.42,7.62c0.9,9.92-0.43,19.61-4.23,28.86c-0.6,1.45-1.91,2.61-2.9,3.9
		C295.92,54.42,295.42,54.22,294.91,54.03z"/>
</g>
</svg>
