<svg id="Layer_1" data-name="Layer 1" xmlns="http://www.w3.org/2000/svg" viewBox="0 0 395.77 83.55"><path d="M232,69.24A11.75,11.75,0,0,0,234.62,61c-.54-6,2.06-11.38,4.28-16.72,2.75-6.58,5.81-13,8.87-19.49a23.33,23.33,0,0,1,3.34-4.88c.36-.42,1.56-.36,2.26-.14.35.11.65,1.09.61,1.64-.47,6.46-.72,12.94-1.6,19.34-1,7.31-4.86,13.35-9.7,18.77-1.22,1.37-2.58,2.61-3.89,3.89s-1,2.59.12,3.89a5.67,5.67,0,0,0,4.24,2.29,2.61,2.61,0,0,0,3-1.9c2.88-7.55,9.1-12.08,15.51-16.25a4.49,4.49,0,0,0,2.15-2.85c2.61-8.56,4.82-17.27,8.94-25.29a52.15,52.15,0,0,1,3.57-6,2.27,2.27,0,0,1,2.06-.72,2.15,2.15,0,0,1,.84,1.94c-1.71,5.72-3.28,11.5-5.43,17.06-2.39,6.19-5.3,12.19-8.05,18.24A14.27,14.27,0,0,0,266.67,68c2,3.17,4.79,4.12,7.61,2.83,2.43-1.11,2.73-2.07,1-4.33-2.07-2.73-2.25-5.68-.46-8.36,2.85-4.27,6.09-8.29,9.22-12.38.86-1.12,2.21-2,3.45-1.11a5,5,0,0,1,1.91,3.21,22.69,22.69,0,0,1-2.84,12.93c-.76,1.44-1.51,2.88-2.63,5,4.9-.84,8.25-2.77,10.71-6.21,2-2.82,4-5.7,5.91-8.6a9.28,9.28,0,0,1,5.79-4.41c3.19-.7,5.19.88,5.17,4.21a14.78,14.78,0,0,1-.73,3.87,9.79,9.79,0,0,0-.8,3.56c1-.93,1.91-1.88,2.9-2.79,1.6-1.46,3.16-3,4.86-4.29A2.81,2.81,0,0,1,320,50.9c.35.1.65,1.14.59,1.71-.17,1.43-.55,2.83-1,4.88,2.45-2,4.4-3.62,6.47-5.12.55-.39,1.86-.68,2.12-.39,1.86,2.06,2.85.27,4-.76s2.32-2.38,3.61-3.4c.18-.15,1.63.7,1.61,1a37.92,37.92,0,0,1-1,5c2.13-1.79,3.51-3.15,5.08-4.24,2.4-1.67,3.34-1.22,4,1.69.12.58.2,1.17.29,1.74,1.41-.79,3.15-2.33,3.72-2,2.1,1.29.15,2.81-.37,4.25-.2.56-.28,1.16-.6,2.51a13.1,13.1,0,0,0,6.42-4.42,16.17,16.17,0,0,1,2.22-2.64,1.79,1.79,0,0,1,1.75,0c.35.24.33,1.12.3,1.7a7.69,7.69,0,0,1-.59,1.75,30.43,30.43,0,0,0,4.49.2c7.6-.8,15.19-1.71,22.78-2.57,1.15-.13,2.32-.15,3.48-.26q15.11-1.41,30.23-2.83c1.13-.1,2.29,0,4,0-.89.68-1.33,1.28-1.84,1.36-6.56,1-13.11,2.13-19.69,2.9-5.41.63-10.88.73-16.3,1.28C378,55,370.28,56,362.54,56.92a6.92,6.92,0,0,1-1,.19c-2-.07-4.08-.71-5.82-.14s-3.18,2.31-4.72,3.57a2.34,2.34,0,0,1-3.54-.29,27.35,27.35,0,0,1-2.06-2.82c-.53.25-1,.44-1.37.65-4.82,2.46-6.9,1.83-9.51-2.93a21.72,21.72,0,0,1-.82-2c-1.55,1.77-2.71,3.14-3.92,4.46-2.32,2.53-2.43,2.52-5.85-.21-1.46,1.75-2.87,3.55-4.41,5.23a2.05,2.05,0,0,1-1.74.52,1.94,1.94,0,0,1-1.12-1.4c-.12-2.09-.05-4.18-.05-6.55a18.3,18.3,0,0,0-5.06,5.24c-1.25,2-2.43,4-3.81,5.86-.49.66-1.5.94-2.27,1.4a13.49,13.49,0,0,1-.79-2.69,6,6,0,0,1,.43-2.42c1-2.8,2.07-5.58,3.11-8.36.59-1.6,1.21-3.73-.33-4.51-1-.51-3.2.48-4.39,1.4a8.27,8.27,0,0,0-2.18,3.82c-2.63,7.8-8.82,11.31-16.13,13.31-2.29.63-4.44,1.2-6.23,2.87a8.35,8.35,0,0,1-2.59,1.46c-6.37,2.53-9.79.48-12.18-4a68.18,68.18,0,0,1-2.89-7.3c-2.58,2.89-4.94,5.56-7.34,8.2-.89,1-1.89,1.86-2.82,2.81s-2.12,1.58-3.51.56a2.24,2.24,0,0,0-1.37-.5,11.59,11.59,0,0,1-9.66-3.72,4,4,0,0,0-.7.42c-.94,1.07-1.91,3.07-2.78,3a8.42,8.42,0,0,1-5.34-2.08c-2-2.09-3.3-4.85-5.07-7.59-.68.57-1.53,1.26-2.36,2-4.68,4-9.25,8.1-14,11.94a13.21,13.21,0,0,1-9.18,3.32c-3.69-.25-5.84-2.12-6.36-5.78a14.64,14.64,0,0,1,1.56-8.72,82.18,82.18,0,0,1,5-9.17c6.17-9.11,13-17.69,21.32-25l.74-.68c1.36-1.28,2.81-2.69,4.8-1.6,2.19,1.21,2.52,3.25,1.75,6.15l-3.06-3.32c-3.82,1.41-6.58,4.05-9.14,6.89-7.47,8.29-14.75,16.73-19.31,27.09-1.16,2.63-1.93,5.29-1.14,8.19S196,78,198.84,77.22a23.73,23.73,0,0,0,6.3-2.87,73.35,73.35,0,0,0,16-14.15,8.92,8.92,0,0,0,1.6-3.49,62.68,62.68,0,0,1,5.45-13.88c2.8-5.09,5.36-10.32,8-15.5.3-.58.41-1.35.86-1.77s1.52-1.07,2-.86a2.41,2.41,0,0,1,1.1,2c-.33,2.45-.87,4.87-1.43,7.29-1.88,8.08-5.92,15.11-10.86,21.64-1.56,2.06-3,3.85-2,6.72C227.24,66.54,228.13,67.73,232,69.24Zm4.91-9.19a28.68,28.68,0,0,0,13.14-17.28c1.57-5.65,1.76-11.69,2.5-17.57a12.7,12.7,0,0,0-.38-2.84C246.32,30,236.85,53.61,236.92,60.05Zm50.67-12.7c-5.09,2.72-7.57,6.92-10,11a9.74,9.74,0,0,0-1,5.22c0,.84,1.23,1.91,2.15,2.33a2.81,2.81,0,0,0,2.4-.88A24.06,24.06,0,0,0,287.59,47.35Zm-50.75-16.5c-3.42,6.9-6.85,13.79-10.23,20.71-.17.35.13.91.28,1.82C231.92,46.35,236.41,39.56,236.84,30.85Zm12,37.07c6-3.59,9.76-7.9,10.32-11.61C254.57,59.33,250.53,62.55,248.8,67.92Zm26.46-43.21c-3.94,6.11-7,14.93-6.92,19.76C271.27,37.72,273.91,31.43,275.26,24.71Z" transform="translate(-27.84 -16.52)"/><path d="M86.63,68.43c1.24-2.11,2.44-4.24,3.74-6.3a1.41,1.41,0,0,1,1.26-.43c.45.34,1,1,1,1.48C92.15,67,91.54,70.71,91,74.47a31.56,31.56,0,0,0-.43,4.93,2.44,2.44,0,0,0,1.16,1.91,2.29,2.29,0,0,0,2-.83c.76-1,1.11-2.39,1.79-3.5,2.27-3.65,4.49-7.34,7-10.84,1.13-1.58,2.55-1,3,1,.11.47-.19,1.3,0,1.45,2.77,1.76,1.68,4.74,2.24,8,1.69-3.31,3-6,4.38-8.53,1-1.77,2.36-2.1,4.1-1.1,1.46.86,1.42,2,.8,3.42-1.08,2.42-2.2,4.83-3,7.33-.24.71.39,1.72.62,2.6a6.06,6.06,0,0,0,2.23-.65c1.41-1.15,2.61-2.55,4-3.76A4.39,4.39,0,0,0,122.41,71c-1.29-4.16-.54-8.29.43-12.3,2.7-11.2,8.28-20.94,15.7-29.67a5.88,5.88,0,0,1,1.8-1.69c1-.45,2.4-1,3.09-.64s.94,2,.81,3c-1.92,14.76-7.66,28.06-15.76,40.43a9.15,9.15,0,0,0-.59.8c-.7,1.28-2.26,3-1.88,3.77a11.54,11.54,0,0,0,4.27,4.65c5.52,3.09,14.21.5,16.81-5.21,1.12-2.46,2.32-5.58-.1-8.36-.31-.36-.07-1.19-.09-1.8.73.1,1.68-.05,2.17.35,2,1.61,2.43,3.86,2.34,6.3-.19,5.89,1.37,6.83,7.29,4.16l-1.43-2.46a4.4,4.4,0,0,1,.18-4.72c1-1.64,3.2-3.13,4.35-2.89,1.59.34,3.64,3,3.63,4.92a21.36,21.36,0,0,1-.64,3.64c7.91,1.15,15.56-.82,23.49-2.67-.37,2.08-1.79,2.29-2.92,2.69a56,56,0,0,1-20.58,2.92,10.74,10.74,0,0,0-5.23,1.09c-4.47,2.16-5.71,2-10.44-.46-4,4.17-9,6.67-14.93,6.12-5-.46-6.83-1.87-10.26-6.52-1.55,1.52-3.06,3-4.61,4.5a12.66,12.66,0,0,1-2.25,2,3.45,3.45,0,0,1-5.43-2.18,24.51,24.51,0,0,1-.45-3.49c-1.33,1.63-2.27,2.93-3.37,4.07-1.25,1.31-2.45,1-3-.58a8.54,8.54,0,0,1-.39-1.95c-.06-.64,0-1.3,0-2.58a32.81,32.81,0,0,0-3,3.09c-2.18,3-6,3.17-8.64,5.44-.3.26-1.27,0-1.79-.27a4.62,4.62,0,0,1-2.41-4.6c.17-3.31.5-6.61.78-9.91.09-1.11.21-2.21.35-3.67l-3.13,2Zm55.88-38.95c-4.27,2.52-11.16,11.87-13.87,19s-5.43,14.4-3.68,22.88C134.25,58.65,140.29,45.24,142.51,29.48ZM163,69.65c-.47-.84-.65-1.66-1.1-1.84a2,2,0,0,0-1.67.54,2.34,2.34,0,0,0-.32,3.43c.23.29,1.08.54,1.19.41A25.44,25.44,0,0,0,163,69.65Z" transform="translate(-27.84 -16.52)"/><path d="M86.52,68.33q-3,7.59-6,15.18c-.92,2.31-1.84,4.63-2.83,6.92a15.07,15.07,0,0,1-1.63,3c-.84,1.15-2.27,1.19-2.84,0a19.22,19.22,0,0,1-1.57-5.12,39.48,39.48,0,0,1-.06-5.68c-3.47,2.79-6.21,5.16-9.12,7.29-6.33,4.64-13,8.62-20.91,9.94-5.86,1-11.09-2-12.82-7.66a23.09,23.09,0,0,1-.61-10.34C29.86,70.59,36,61.55,42.58,52.75c2-2.66,4.26-5.11,6.49-7.57a24.53,24.53,0,0,1,3.69-3.29,3.63,3.63,0,0,1,2.2-.21A1.66,1.66,0,0,1,55.18,43c-.46.7-1.41,1.87-1.72,1.75-1.54-.62-2.11.41-2.87,1.26-5.69,6.31-11,12.91-15,20.42-3.35,6.21-5.7,12.71-5.48,19.89a20.18,20.18,0,0,0,.62,5.34c1.49,4.65,5.05,6.58,10,6.21,4.65-.35,8.63-2.41,12.56-4.5,6.79-3.61,12.74-8.45,18.41-13.6A17.6,17.6,0,0,0,75.24,75c3-5.7,5.84-11.54,8.86-17.25,3.72-7,8.22-13.7,9.8-21.71.13-.69,1.31-1.18,2-1.76.52.74,1.39,1.44,1.49,2.24a22.66,22.66,0,0,1-2.47,12.53c-2.48,5.24-5.49,10.24-8.42,15.26a18.46,18.46,0,0,1-3,3.17,11.19,11.19,0,0,1,.73-2.34c2-3.45,4.12-6.82,6.06-10.29,1.78-3.17,3.45-6.42,3.72-10.18-3.64,6.16-7,12.43-10.34,18.75a50.58,50.58,0,0,0-2,5l-.47.74.35-.85,2.12-1c-.48,2.77-2.41,4.61-4.13,6.61a23,23,0,0,0-5.47,11.53c-.29,1.81-.4,1.79,1,4.65,2.66-5.73,5.21-11.46,8-17.07.85-1.7,2.35-3.08,3.55-4.61Z" transform="translate(-27.84 -16.52)"/><path d="M148.36,52.37c.72,1.24,1.3,2.14,1.74,3.09.05.12-.88.88-.95.82a16.73,16.73,0,0,1-2.34-2.19A20.4,20.4,0,0,1,148.36,52.37Z" transform="translate(-27.84 -16.52)"/></svg>