<svg id="Layer_1" data-name="Layer 1" xmlns="http://www.w3.org/2000/svg" viewBox="0 0 123.48 51.58"><path d="M96.35,23.4c.62.75,1.12,1.41,1.67,2a14.65,14.65,0,0,0,1.71,1.81,3.09,3.09,0,0,0,4.65-.3,35.27,35.27,0,0,0,2.75-4.13c.41-.64.74-1.35,1.73-1A1.61,1.61,0,0,1,110,24a4.79,4.79,0,0,1-.57,1.38,19.62,19.62,0,0,1-1.61,2.22c-2.87,3.32-2.82,3.22.86,5.41a85.17,85.17,0,0,1,7.61,5.2,11,11,0,0,1,3.62,5c.87,2.31.18,3.86-2.14,4.76a6.8,6.8,0,0,1-1.93.46,32.2,32.2,0,0,1-13.28-1.71,14.82,14.82,0,0,1-4-2.44,3.22,3.22,0,0,1-1.12-3.81c.63-1.71,1.3-3.41,2-5.11a32,32,0,0,0,1.25-3.25c.29-1.12,0-1.56-1.09-1.85-2.07-.56-4.15-1.12-6.25-1.6a4.65,4.65,0,0,0-1.69.13,47.39,47.39,0,0,1-10.7.66,3.51,3.51,0,0,1-3.24-3.2c-.09-1,.42-1.41,1.33-1,.45.19.87.48,1.31.7a5.3,5.3,0,0,0,3.84.65,12.7,12.7,0,0,1,2.24-.17C89.89,26.16,93.31,25.58,96.35,23.4Zm17.27,22.35,0-.17c.58,0,1.16,0,1.74,0a2.07,2.07,0,0,0,.5-.06c1-.21,1.46-.91,1-1.82a8.21,8.21,0,0,0-1.81-2.32c-2.09-1.78-4.25-3.49-6.44-5.14a22.36,22.36,0,0,0-3.19-1.93c-1.18-.62-1.6-.55-2.26.57a24.48,24.48,0,0,0-1.94,4c-1,2.88-.53,3.84,2.37,4.86a4.84,4.84,0,0,0,.72.2Z"/><path d="M16.56,15.1a49.07,49.07,0,0,1-.86,12.15c-.71,3.32-2.76,5.62-5.38,7.51-1.39,1-3,.83-4.55.39a1.89,1.89,0,0,1-1.43-2.09A23.35,23.35,0,0,1,5,29.16C6.11,24.9,7.44,20.7,7.92,16.3c.26-2.39.47-4.79.75-7.18a21.76,21.76,0,0,1,.59-3.43C10,3,12.61,2.29,14.69,4.16a5.56,5.56,0,0,1,1.86,4.21C16.58,10.61,16.56,12.86,16.56,15.1Zm-5.5.69h.1c0,2.82,0,5.64,0,8.47,0,.79-.37,1.07-1.07.48s-1.13-.25-1.31.41c-.59,2.07-1.1,4.16-1.63,6.25a.91.91,0,0,0,0,.49c.11.38.2,1,.42,1.06a2.84,2.84,0,0,0,1.35-.22,1.61,1.61,0,0,0,.58-.47c2-2,3.7-4.33,4.08-7.25.43-3.29.78-6.6.91-9.91A40.72,40.72,0,0,0,14,8.4c-.12-.92-.25-2.11-1.5-2.35-.78-.16-1.4.89-1.43,2.51C11,11,11.06,13.38,11.06,15.79Z"/><path d="M40.57,40.51c.45-2.87,1-5.74,1.34-8.61.21-1.48.27-3,.35-4.48,0-.74-.32-1.06-1.1-.81a6.66,6.66,0,0,1-1.92.47c-.49,0-1.28-.29-1.39-.63a1.64,1.64,0,0,1,.6-1.42,6.62,6.62,0,0,1,2.07-.78,16.15,16.15,0,0,1,2-.38c1.56-.22,2.66-.88,2.73-2.65a1.27,1.27,0,0,1,.35-.9c.24-.16.88-.19,1-.05a5,5,0,0,1,.6,1.61c.15.73.23,1.47.31,2.22a1.8,1.8,0,0,0,1.67,1.84,2.64,2.64,0,0,1,1.18.36,3.43,3.43,0,0,0,4.51.25,1.62,1.62,0,0,1,1.56.21,1.94,1.94,0,0,1,.11,1.6,2.89,2.89,0,0,1-3.31,2,12,12,0,0,1-3.27-1.09c-4.13-2-5.29-1.32-5.66,3.24-.19,2.31-.36,4.63-.67,6.93A6.88,6.88,0,0,1,42.62,42c-.23.39-.9.52-1.37.76a8.92,8.92,0,0,1-.56-1.27,3.62,3.62,0,0,1,0-1Z"/><path d="M38.22,7.39c-.6,3.25-1,6.3-1.75,9.28-.85,3.55-1.88,7.06-2.91,10.57a18.26,18.26,0,0,1-1.37,3.19c-.14.29-.71.63-.92.54a1.24,1.24,0,0,1-.62-.95A11,11,0,0,1,31,27.33c.91-3.19,1.89-6.36,2.84-9.55a6.63,6.63,0,0,0,.37-1.44,1.32,1.32,0,0,0-.34-.83c0-.06-.52.08-.65.24-.51.64-1,1.33-1.46,2-.37.5-.81.89-1.47.56s-.59-.95-.31-1.5c.37-.74.79-1.45,1.22-2.16l4.05-6.57A8.1,8.1,0,0,1,36,6.81a12.93,12.93,0,0,1,1.46-1.2Z"/><path d="M78.49,12.45c-.54,2.61-1,5-1.52,7.33-.63,2.93-1.25,5.85-1.9,8.77a15.26,15.26,0,0,1-.71,2.39c-.28.68-.74,1.52-1.6,1.18-.4-.17-.7-1.08-.7-1.65a14.58,14.58,0,0,1,.43-3.21c.43-2,1-3.87,1.41-5.81.06-.28,0-.84-.09-.87a1.64,1.64,0,0,0-1.12,0c-.49.29-.83.84-1.31,1.13a3.72,3.72,0,0,1-1.59.57.83.83,0,0,1-.66-1.39,24.28,24.28,0,0,1,2.65-2.62c1.63-1.36,3.08-2.78,3.5-5a3.71,3.71,0,0,1,.82-1.52c.42-.5,1-1.06,1.7-.6C78.19,11.46,78.32,12.11,78.49,12.45Z"/><path d="M58,13a1.74,1.74,0,0,1-1.32,1.85,2.12,2.12,0,0,1-2-2.1,2,2,0,0,1,1.7-1.85C57.22,10.85,58,11.82,58,13Z"/><path d="M20.54,28A1.88,1.88,0,0,1,19,29.91a1.38,1.38,0,0,1-1.58-1.5c0-1,.88-2.28,1.56-2.36S20.51,27.06,20.54,28Z"/></svg>