<svg width="90" height="90" viewBox="0 0 90 90" fill="none" xmlns="http://www.w3.org/2000/svg">
<path d="M82.8 45.4002C82.3 66.4002 65.1 83.4002 44 83.4002C29.7 83.4002 16.7 75.6002 9.9 63.1002H8C15 76.7002 28.8 85.1002 44.1 85.1002C66.5 85.1002 84.6 66.9002 84.6 44.6002V43.7002H71.4V45.4002H82.8Z" fill="black"/>
<path d="M6.7 43.7C7.2 22.7 24.4 5.7 45.5 5.7C59.7 5.7 72.5 13.3 79.4 25.6H81.3C74.2 12.3 60.6 4 45.5 4C23.2 4 5 22.2 5 44.5V45.3H19.4V43.7H6.7Z" fill="black"/>
<path d="M45.2998 24.2V22.5C34.9998 22.5 26.2998 29.7 23.8998 39.3C23.4998 41 23.2998 42.7 23.2998 44.5C23.2998 46 23.3998 47.4 23.6998 48.8C25.6998 58.9 34.5998 66.6 45.2998 66.6C55.9998 66.6 64.8998 59 66.8998 48.8C67.1998 47.4 67.2998 46 67.2998 44.5V43.7H45.2998V45.4H65.5998C65.5998 46.6 65.3998 47.7 65.0998 48.8C63.0998 58 54.9998 64.9 45.1998 64.9C35.4998 64.9 27.2998 58 25.2998 48.8C24.9998 47.4 24.7998 46 24.7998 44.5C24.7998 42.7 25.0998 40.9 25.4998 39.3C27.9998 30.6 35.8998 24.2 45.2998 24.2Z" fill="black"/>
</svg>
