<svg id="Layer_1" data-name="Layer 1" xmlns="http://www.w3.org/2000/svg" viewBox="0 0 128.38 51.95"><path d="M69.93,43.69c6.82,0,11.22-3.73,15.26-7.35,0-2-.08-3.52,0-5.08a6.45,6.45,0,0,1,3.09-5.42c1-.63,2.17-1.06,3.25-.22s1,2.23.54,3.42a12.53,12.53,0,0,1-1.52,2.56c-.87,1.2-1.83,2.33-2.75,3.48l.42.4a34,34,0,0,0,2.44-2.82c1.42-2,2.61-4.27,4.11-6.25,2.17-2.85,3.24-3,6.58-1,2-1.5,4.81,1.22,7.08-1.18-.34-1.78-.73-3.55-1-5.34A18,18,0,0,1,109.31,7.5a11.86,11.86,0,0,1,3.6-4c2-1.4,3.9-.25,3.79,2.21a28.4,28.4,0,0,1-1,6.14c-.89,3.21-2,6.37-3.12,9.49A25.51,25.51,0,0,1,110.46,25c.82,1,1.91,1.36,2.63.18a13.42,13.42,0,0,0,2-4.93c.65-4.74,1.22-9.47,4.21-13.4a17.24,17.24,0,0,1,3.59-3.39,2.88,2.88,0,0,1,3.65,0c.52,3.3-6.13,17.53-9.59,20.61-1,5.81,1.66,8.37,8.34,7.56a4.5,4.5,0,0,1-4.7,1.4c-4.41-1.17-4.84-5-5.49-8.73-2.19,3.24-2.91,3.37-6,1.24-3.33.71-6.63,1.27-9.94-.19A2.51,2.51,0,0,0,96,26.48q-2.43,3.63-4.82,7.28c-1.12,1.68-2.47,3-3.93,2.77-3.77,2.52-6.91,4.84-10.28,6.75a14.05,14.05,0,0,1-5.47,1.41c-2.23.22-3.12-.91-2.5-3.09.89-3.13,2-6.17,3-9.28s1.82-6.05,2.51-9.13a20,20,0,0,0,0-4.26,4.83,4.83,0,0,0-4.76,2.34c-3,4.11-5.72,8.39-7.08,13.39a6.32,6.32,0,0,1-.47,1.15c-.06.11-.26.16-.87.51a24.11,24.11,0,0,1,.35-2.46C63.42,27,65.21,20.16,67,13.31a12,12,0,0,0,.12-5.77,2.51,2.51,0,0,0-3.23,1.08c-3.05,4.23-6,8.32-6.49,14a68.18,68.18,0,0,1-6.9,25.14,14.13,14.13,0,0,1-1.07,1.58l-.58,0a6.69,6.69,0,0,1-.17-2.11c1.44-6,2.86-12,4.47-17.91.78-2.88,2-5.66,2.94-8.49,1.48-4.18.44-8.21-.81-12.18-.45-1.44-1.7-1.87-3.26-1.47-3,.78-5.17,3.81-5.8,7.89a5.56,5.56,0,0,1-.23-1.9c.77-3.16,2.4-5.67,5.61-6.8,2.08-.73,3.72-.19,4.45,1.91.89,2.56,1.32,5.28,1.94,7.86.87-1.5,1.83-3.3,2.92-5a26.86,26.86,0,0,1,2.55-3.37c1-1.06,2.07-2.15,3.66-1.42S68.63,8.62,68.42,10c-.37,2.46-.87,4.91-1.48,7.33-.87,3.47-1.89,6.89-2.64,10.48.78-1.27,1.47-2.6,2.34-3.8a47.77,47.77,0,0,1,3.85-4.86c1.08-1.15,2.56-2.27,4.18-1.33s1.44,2.6,1.08,4.07c-.87,3.64-1.85,7.25-2.89,10.84-.78,2.72-1.75,5.39-2.56,8.1A20.07,20.07,0,0,0,69.93,43.69ZM114.85,3.63c-3.18.78-4.44,3.23-5.33,5.81a20,20,0,0,0,.14,14.09C113.18,20.36,116.57,7.48,114.85,3.63Zm1.94,18.78C119.55,20.7,126.12,6.59,125.6,4c-1.87-.38-3.12.68-4.19,2a21.07,21.07,0,0,0-4.6,11.9C116.68,19.27,116.79,20.73,116.79,22.41ZM49.33,46.18l.68.16c3.61-7.2,5.24-14.94,6.32-22.84l-.61-.17ZM91.72,27c-1.65-1.25-2.75-.57-3.76.36-1.75,1.61-2.4,4.88-1.34,7.54C88.63,32.38,91,30.33,91.72,27Z"/><path d="M26.24,7.36c0,.37,0,1-.18,1.09-4,2.23-6,6.06-7.41,10-2.12,5.94-3.74,12.06-5.46,18.14-.67,2.39-1,4.88-1.57,7.31a6.07,6.07,0,0,1-.56,1.22L10.54,45c.19-1.34.35-2.68.6-4,1.17-6.21,2.6-12.38,3.48-18.62.64-4.49,1.4-9.08.3-13.64-.24-1-.66-1.93-1-2.94-2.87.56-3.69,2.95-5.35,4.44C8.71,8.33,11.38,5.12,13,5.15a2.8,2.8,0,0,1,2.11,1.26,9,9,0,0,1,.94,3.82c0,3.49-.23,7-.35,10.46a10.44,10.44,0,0,0,.1,2.06C18.13,16.88,20.29,10.91,25.57,7Z"/><path d="M24.12,28.59c-.93,1.07-2,2-1.25,3.53,1.16.84,2,0,3-.44A37.43,37.43,0,0,1,31,29.34a6,6,0,0,1,3.63,0c3.76,1.38,7.49,1,11.27.34,1.91-.33,3.85-1,5.76.47-4.63.34-9.26.71-13.9,1a4.69,4.69,0,0,1-2.39-.6c-2.05-1.16-4-.8-5.93.18-1.18.61-2.33,1.27-3.52,1.86-.86.43-1.77.78-2.51,1.11-1.56-.77-2.07-1.82-1.73-3.2A2.16,2.16,0,0,1,24.12,28.59Z"/></svg>